<svg xmlns="http://www.w3.org/2000/svg" viewBox="0 0 421.98 87.6"><g fill="#035f8f"><path d="M49.9 19.6l-1.1-1-1.1 1c-3.9 3.5-6.2 8.4-6.2 13.6s2.3 10.1 6.2 13.6l1.1 1 1.1-1c3.9-3.5 6.2-8.4 6.2-13.6 0-5.2-2.2-10.1-6.2-13.6zm-1.1 23.7c-2.6-2.8-4-6.4-4-10.1s1.4-7.3 4-10.1c2.6 2.8 4 6.4 4 10.1s-1.4 7.3-4 10.1zm11.9 9.4c2.7 0 5.2-.7 7.5-2.1 4.2-2.5 7-7.1 7.9-12.5l.2-1.2-1.2-.5c-2.1-1-4.4-1.4-6.6-1.4-2.7 0-5.2.7-7.5 2.1-4.2 2.5-7 7.1-7.9 12.5l-.2 1.2 1.2.5c2.2.9 4.4 1.4 6.6 1.4zm2.1-12.9c1.8-1.1 3.8-1.6 5.8-1.6 1.3 0 2.7.2 4 .7-.9 3.9-3.1 7.2-6.1 9-1.8 1.1-3.8 1.6-5.8 1.6-1.3 0-2.7-.2-4-.7.9-4 3.1-7.2 6.1-9zM58 32.7l.4 1.5 1.5-.3c5.3-1.1 10-4.6 12.9-9.6s3.7-11.1 2.3-16.7l-.4-1.5-1.5.3c-5.3 1.1-10 4.6-12.9 9.6-2.8 5-3.6 11.1-2.3 16.7zm5.2-15.1c2.1-3.7 5.4-6.4 9.1-7.6.7 4.4-.1 8.9-2.3 12.7-2.1 3.7-5.4 6.4-9.1 7.6-.7-4.4.1-8.9 2.3-12.7zm17 32.6c-1-.2-1.9-.3-2.9-.3-3.3 0-6.6 1.3-9.3 3.7l-.9.8.5 1.1c2 4.4 5.6 7.5 9.8 8.5 1 .2 1.9.3 2.9.3 3.3 0 6.6-1.3 9.3-3.7l.9-.8-.5-1.1c-2.1-4.5-5.6-7.6-9.8-8.5zm.1 10.8c-.7 0-1.4-.1-2.1-.3-2.8-.7-5.3-2.7-7-5.6 1.9-1.4 4-2.1 6.1-2.1.7 0 1.4.1 2.1.3 2.8.7 5.3 2.7 7 5.6-1.9 1.4-4 2.1-6.1 2.1zm16.5-22.7c-2.4-2.1-5.3-3.2-8.2-3.2-.9 0-1.8.1-2.8.3-3.7.9-6.9 3.7-8.6 7.7l-.5 1.1.9.8c2.4 2.1 5.3 3.2 8.2 3.2.9 0 1.8-.1 2.8-.3 3.7-.9 6.9-3.7 8.6-7.7l.5-1.1-.9-.8zm-9 6.4c-.6.2-1.3.2-2 .2-1.7 0-3.5-.6-5-1.6 1.4-2.4 3.5-4.1 5.8-4.7 2.4-.6 4.8-.1 7 1.4-1.4 2.4-3.5 4.1-5.8 4.7zM53.5 19.5l1 .9 1.1-.8c2.9-2.3 4.6-5.7 4.7-9.2.1-3.5-1.5-6.9-4.3-9.4l-1-.9-1.1.8c-2.9 2.3-4.6 5.7-4.7 9.2-.1 3.5 1.5 7 4.3 9.4zm1.4-15c1.4 1.7 2.2 3.7 2.2 5.8s-.9 4.1-2.4 5.7c-1.4-1.7-2.2-3.7-2.2-5.8s.8-4.1 2.4-5.7zm18 27.6l1.2.4c1.3.4 2.6.6 3.9.6 2.7 0 5.2-.9 7.3-2.5 3.1-2.4 5-6.2 5.2-10.6l.1-1.3-1.2-.4c-1.3-.4-2.6-.6-3.9-.6-2.7 0-5.2.9-7.3 2.5-3.1 2.4-5 6.2-5.2 10.6l-.1 1.3zm7.3-9.3c1.9-1.5 4.4-2.1 6.8-1.7-.5 2.9-1.8 5.3-3.8 6.9-1.5 1.2-3.3 1.8-5.2 1.8-.5 0-1.1 0-1.6-.1.5-2.9 1.8-5.3 3.8-6.9zM56.5 55c-.6 0-1.2 0-1.8.1l-1.3.1-.1 1.3c-.6 5.5 1 10.7 4.3 14.4 3 3.3 7.1 5.1 11.5 5.1.6 0 1.2 0 1.8-.1l1.3-.1.1-1.3c.6-5.5-1-10.7-4.3-14.4-2.9-3.2-7-5.1-11.5-5.1zm12.7 17.9q-.1 0 0 0-.1 0 0 0c-3.6 0-6.8-1.4-9.2-4-2.4-2.7-3.7-6.5-3.6-10.5h.1c3.5 0 6.8 1.4 9.1 4 2.4 2.6 3.7 6.4 3.6 10.5zM36.6 37c-2.3-1.4-4.8-2.1-7.5-2.1-2.2 0-4.4.5-6.6 1.4l-1.2.5.2 1.2c.9 5.5 3.8 10 7.9 12.5 2.3 1.4 4.8 2.1 7.5 2.1 2.2 0 4.4-.5 6.6-1.4l1.2-.5-.2-1.2c-.9-5.4-3.8-10-7.9-12.5zm.4 12.5c-2.1 0-4.1-.6-5.8-1.6-3-1.8-5.2-5.1-6.1-9 1.3-.5 2.7-.7 4-.7 2.1 0 4.1.6 5.8 1.6 3 1.8 5.2 5.1 6.1 9-1.3.4-2.7.7-4 .7zm.7-15.6l1.5.3.4-1.5c1.4-5.6.5-11.7-2.3-16.7-2.9-5-7.6-8.5-12.9-9.6l-1.5-.3-.4 1.5c-1.4 5.6-.5 11.7 2.3 16.7 2.9 5 7.6 8.5 12.9 9.6zM25.3 10c3.7 1.2 7 3.9 9.1 7.6 2.2 3.8 3 8.3 2.3 12.7-3.7-1.2-7-3.9-9.1-7.6-2.1-3.8-2.9-8.3-2.3-12.7zM30 55.4l.5-1.1-.9-.8c-2.7-2.4-6-3.7-9.3-3.7-1 0-1.9.1-2.9.3-4.2 1-7.7 4.1-9.8 8.5l-.5 1.1.9.8c2.7 2.4 6 3.7 9.3 3.7 1 0 1.9-.1 2.9-.3 4.3-.9 7.8-4 9.8-8.5zm-10.5 5.4c-.7.2-1.4.3-2.1.3-2.1 0-4.2-.7-6.1-2.1 1.6-2.9 4.1-4.9 7-5.6.7-.2 1.4-.3 2.1-.3 2.1 0 4.2.7 6.1 2.1-1.7 2.9-4.1 4.9-7 5.6zm-7.6-12.6c2.9 0 5.7-1.1 8.2-3.2l.9-.8-.5-1.1c-1.8-4-4.9-6.8-8.6-7.7-.9-.2-1.8-.3-2.8-.3-2.9 0-5.7 1.1-8.2 3.2l-.9.8.5 1.1c1.8 4 4.9 6.8 8.6 7.7.9.2 1.8.3 2.8.3zM4.1 40c2.2-1.5 4.6-2 7-1.4s4.5 2.3 5.8 4.7c-2.2 1.5-4.6 2-7 1.4S5.4 42.4 4.1 40zm38-20.5l1.1.8 1-.9c2.8-2.4 4.4-5.8 4.3-9.4-.1-3.5-1.8-6.9-4.7-9.2L42.7 0l-1 .9c-2.8 2.4-4.4 5.8-4.3 9.4.1 3.6 1.8 6.9 4.7 9.2zm.7-15c1.5 1.6 2.3 3.6 2.4 5.7 0 2.1-.7 4.2-2.2 5.8-1.5-1.6-2.3-3.6-2.4-5.7 0-2.2.8-4.2 2.2-5.8zM12.4 30.6c2.1 1.6 4.6 2.5 7.3 2.5 1.3 0 2.6-.2 3.9-.6l1.2-.4-.1-1.3c-.3-4.4-2.2-8.2-5.2-10.6-2.1-1.6-4.6-2.5-7.3-2.5-1.3 0-2.6.2-3.9.6l-1.2.4.1 1.3c.2 4.4 2.2 8.2 5.2 10.6zm5-7.8c2 1.6 3.4 4 3.8 6.9-2.5.4-4.9-.2-6.8-1.7-2-1.6-3.4-4-3.8-6.9 2.5-.4 4.9.2 6.8 1.7zm26.9 32.5l-1.3-.1c-.6-.1-1.2-.1-1.8-.1-4.5 0-8.6 1.8-11.5 5.1-3.3 3.7-4.9 8.9-4.3 14.4l.1 1.3 1.3.1c.6.1 1.2.1 1.8.1 4.5 0 8.6-1.8 11.5-5.1 3.3-3.7 4.9-8.9 4.3-14.4l-.1-1.3zm-6.6 13.5c-2.3 2.6-5.6 4-9.1 4h-.1c-.1-4 1.2-7.8 3.6-10.5 2.3-2.6 5.6-4 9.1-4h.1c.1 4.1-1.2 7.8-3.6 10.5zm9.5-14.9h3.3V86h-3.3zm11.2 30.4c-1.6 0-2.9-1.3-2.9-2.9v-10h-3.3v10c0 3.4 2.8 6.2 6.2 6.2h11.9v-3.3H58.4zm-16.3-2.9c0 1.6-1.3 2.9-2.9 2.9H27.3v3.3h11.9c3.4 0 6.2-2.8 6.2-6.2v-10h-3.3v10z"/><g opacity=".75"><ellipse cx="48.8" cy="36.9" rx="4.4" ry="10" opacity=".5"/><ellipse cx="63" cy="47.31" rx="8.6" ry="4.5" transform="rotate(-30.56 63.01 47.325)" opacity=".5"/><path d="M62.4 21.7c-2.6 3.5-3.5 7.8-3 11.9 3.7-.4 7.3-2.4 9.9-5.9s3.5-7.8 3-11.9c-3.8.4-7.4 2.4-9.9 5.9z" opacity=".5"/><ellipse cx="75.07" cy="57.98" rx="3.8" ry="6.9" transform="rotate(-75.77 75.07 57.975)" opacity=".5"/><path d="M83.9 40.8c-2.4.6-4.2 2.4-5.3 4.8 1.9 1.6 4.3 2.4 6.6 1.8 2.4-.6 4.2-2.4 5.3-4.8-1.9-1.6-4.3-2.4-6.6-1.8zM54.9 8c-2 1.5-3.2 3.7-3.3 6.1 0 2.5 1.1 4.7 3 6.3 2-1.5 3.2-3.7 3.3-6.1 0-2.5-1.1-4.7-3-6.3zm23.7 18c-2 1.6-3.1 4.1-3.3 6.8 2.4.7 4.9.4 6.9-1.2s3.1-4.1 3.3-6.8c-2.3-.7-4.9-.4-6.9 1.2z" opacity=".5"/><ellipse cx="59.32" cy="64.08" rx="4.4" ry="8.9" transform="rotate(-40.18 59.312 64.084)" opacity=".5"/><ellipse cx="34.6" cy="47.35" rx="4.5" ry="8.6" transform="rotate(-59.44 34.603 47.346)" opacity=".5"/><ellipse cx="31.91" cy="24.71" rx="4.5" ry="11" transform="rotate(-35.06 31.906 24.701)" opacity=".5"/><ellipse cx="22.6" cy="58" rx="6.9" ry="3.8" transform="rotate(-14.23 22.617 58.027)" opacity=".5"/><path d="M13.8 40.8c2.4.6 4.2 2.4 5.3 4.8-1.9 1.6-4.3 2.4-6.6 1.8-2.4-.6-4.2-2.4-5.3-4.8 1.9-1.6 4.3-2.4 6.6-1.8zM42.8 8c2 1.5 3.2 3.7 3.3 6.1 0 2.5-1.1 4.7-3 6.3-2-1.5-3.2-3.7-3.3-6.1-.1-2.5 1.1-4.7 3-6.3zM19.1 26c2 1.6 3.1 4.1 3.3 6.8-2.4.7-4.9.4-6.9-1.2s-3.1-4.1-3.3-6.8c2.3-.7 4.8-.4 6.9 1.2z" opacity=".5"/><ellipse cx="38.37" cy="64.1" rx="8.9" ry="4.4" transform="rotate(-49.82 38.371 64.1)" opacity=".5"/></g></g><path d="M133.13 56.16c0-2.36-.83-4.23-2.49-5.61-1.66-1.38-4.7-2.68-9.11-3.93-4.41-1.24-7.64-2.59-9.67-4.06-2.89-2.07-4.34-4.79-4.34-8.14s1.34-5.91 4.03-7.95c2.69-2.04 6.12-3.06 10.3-3.06 2.83 0 5.37.55 7.6 1.64 2.24 1.09 3.97 2.62 5.2 4.57 1.23 1.95 1.85 4.13 1.85 6.53h-3.63c0-2.92-1-5.26-2.99-7.04s-4.67-2.66-8.03-2.66-5.86.73-7.79 2.19c-1.93 1.46-2.9 3.36-2.9 5.71 0 2.17.87 3.94 2.61 5.31 1.74 1.37 4.52 2.58 8.35 3.62 3.83 1.05 6.73 2.13 8.7 3.25 1.97 1.12 3.46 2.47 4.45 4.03 1 1.56 1.49 3.41 1.49 5.54 0 3.36-1.34 6.05-4.03 8.09-2.69 2.03-6.23 3.05-10.62 3.05-3.01 0-5.77-.54-8.28-1.61s-4.41-2.58-5.71-4.51c-1.3-1.93-1.95-4.15-1.95-6.65h3.6c0 3.01 1.12 5.38 3.37 7.12 2.25 1.74 5.23 2.61 8.96 2.61 3.32 0 5.99-.73 8-2.2 2.01-1.46 3.02-3.41 3.02-5.83zm15.43 10.49h-3.6V23.99h3.6v42.66zm42-5.07c-1.25 1.78-3.21 3.16-5.87 4.16s-5.65 1.49-8.95 1.49-6.31-.8-8.91-2.4c-2.6-1.6-4.61-3.87-6.04-6.8-1.43-2.93-2.15-6.29-2.17-10.08v-5.39c0-5.92 1.49-10.59 4.48-14.02s7-5.14 12.04-5.14c4.39 0 7.93 1.12 10.61 3.35 2.68 2.24 4.27 5.32 4.78 9.24h-3.6c-.53-3.13-1.8-5.51-3.82-7.13-2.02-1.62-4.66-2.42-7.92-2.42-3.98 0-7.14 1.42-9.46 4.25-2.32 2.83-3.49 6.83-3.49 11.99v5.04c0 3.25.55 6.11 1.66 8.61 1.1 2.49 2.69 4.42 4.75 5.79s4.43 2.05 7.1 2.05c3.11 0 5.77-.49 8-1.46 1.45-.64 2.52-1.4 3.22-2.26V49.43h-11.46v-3.05h15.06v15.18zm41.48 5.07h-3.63V46.2h-24.38v20.45h-3.6V23.99h3.6v19.16h24.38V23.99h3.63v42.66zm38.57-39.61h-14.62v39.61h-3.6V27.04H237.8v-3.05h32.81v3.05zm38.43 25.4c-.33 4.59-2.03 8.2-5.08 10.84s-7.08 3.96-12.08 3.96c-5.47 0-9.77-1.84-12.91-5.52-3.13-3.68-4.7-8.73-4.7-15.16v-2.61c0-4.1.72-7.71 2.17-10.84 1.45-3.12 3.51-5.52 6.2-7.19 2.68-1.67 5.81-2.5 9.36-2.5 4.92 0 8.89 1.32 11.89 3.96s4.75 6.34 5.21 11.1h-8.79c-.21-2.75-.98-4.75-2.3-5.99-1.32-1.24-3.33-1.86-6.02-1.86-2.93 0-5.12 1.05-6.58 3.15-1.46 2.1-2.2 5.36-2.24 9.77v3.22c0 4.61.7 7.98 2.09 10.11 1.4 2.13 3.6 3.19 6.61 3.19 2.71 0 4.74-.62 6.08-1.86 1.34-1.24 2.1-3.16 2.3-5.76h8.79zm29.5 5.42h-15.41l-2.93 8.79h-9.35l15.88-42.66h8.14l15.97 42.66h-9.35l-2.96-8.79zm-13.04-7.12h10.66l-5.36-15.97-5.3 15.97zm44.76.29h-7v15.62h-8.79V23.99h15.85c5.04 0 8.93 1.12 11.66 3.37 2.73 2.25 4.1 5.42 4.1 9.52 0 2.91-.63 5.34-1.89 7.28-1.26 1.94-3.17 3.49-5.73 4.64l9.23 17.43v.41h-9.43l-8-15.62zm-7-7.12h7.09c2.21 0 3.92-.56 5.13-1.68 1.21-1.12 1.82-2.67 1.82-4.64s-.57-3.59-1.71-4.75c-1.14-1.15-2.9-1.73-5.26-1.73h-7.06v12.8zm54.8 4.25h-16.88v11.43h19.8v7.06h-28.59V23.99h28.54v7.12h-19.75v10.17h16.88v6.88z" fill="#035f8f"/></svg>